<?xml version="1.0" encoding="UTF-8" standalone="no"?>
<!-- Created with Inkscape (http://www.inkscape.org/) -->

<svg
   width="210mm"
   height="297mm"
   viewBox="0 0 210 297"
   version="1.1"
   id="svg5"
   inkscape:version="1.1.1 (3bf5ae0d25, 2021-09-20)"
   sodipodi:docname="dlcv.svg"
   xmlns:inkscape="http://www.inkscape.org/namespaces/inkscape"
   xmlns:sodipodi="http://sodipodi.sourceforge.net/DTD/sodipodi-0.dtd"
   xmlns="http://www.w3.org/2000/svg"
   xmlns:svg="http://www.w3.org/2000/svg">
  <sodipodi:namedview
     id="namedview7"
     pagecolor="#ffffff"
     bordercolor="#666666"
     borderopacity="1.0"
     inkscape:pageshadow="2"
     inkscape:pageopacity="0.0"
     inkscape:pagecheckerboard="0"
     inkscape:document-units="mm"
     showgrid="false"
     inkscape:zoom="1.877186"
     inkscape:cx="654.96974"
     inkscape:cy="443.48296"
     inkscape:window-width="1920"
     inkscape:window-height="991"
     inkscape:window-x="-9"
     inkscape:window-y="1341"
     inkscape:window-maximized="1"
     inkscape:current-layer="layer1" />
  <defs
     id="defs2" />
  <g
     inkscape:label="Layer 1"
     inkscape:groupmode="layer"
     id="layer1">
    <path
       style="fill:#000000;stroke-width:0.264583"
       d="m 167.82777,134.69628 c -6.54601,0.0262 -11.5806,-0.0629 -12.2516,-0.2169 -0.75365,-0.17292 -1.5277,-0.63562 -2.28747,-1.36738 -0.71449,-0.68814 -1.25821,-1.50587 -1.43911,-2.16435 -0.19665,-0.71581 -0.29075,-6.32453 -0.29075,-17.3302 0,-11.00567 0.0941,-16.614395 0.29075,-17.330211 0.18029,-0.656264 0.72365,-1.72445 1.43024,-2.40501 0.84552,-0.814379 1.4902,-0.923569 2.49892,-1.139902 0.77583,-0.166385 4.07992,-0.291546 7.69642,-0.291546 h 6.33697 v 5.965151 5.965148 c 0.007,0.36339 -0.0796,0.7687 0.20017,1.07228 0.34086,0.31775 0.74557,0.20734 1.0987,0.22659 h 5.97723 5.97724 l -0.0782,12.50156 c -0.0727,11.61985 -0.11314,12.56687 -0.57316,13.4276 -0.27221,0.50933 -0.68893,1.14707 -0.92604,1.41722 -0.23712,0.27014 -0.90737,0.74639 -1.48945,1.05833 -1.02965,0.55179 -1.35947,0.56836 -12.17083,0.61162 z m -0.54367,-7.84967 c 0.99608,0 1.23554,-0.18436 4.56774,-3.51655 3.07167,-3.07168 3.51655,-3.62549 3.51655,-4.37765 0,-0.56148 -0.22597,-1.08707 -0.64943,-1.51053 -0.41067,-0.41067 -0.95149,-0.64943 -1.47105,-0.64943 -0.62477,0 -1.16211,0.32203 -2.2429,1.34419 l -1.42129,1.3442 -0.0842,-4.35992 c -0.0743,-3.84499 -0.14376,-4.42561 -0.58826,-4.91607 -0.36226,-0.39972 -0.82199,-0.55615 -1.63444,-0.55615 -0.90607,0 -1.23925,0.13836 -1.67879,0.69714 -0.50291,0.63934 -0.54837,1.04832 -0.54837,4.93317 v 4.23603 l -1.43937,-1.3613 c -1.05772,-1.00034 -1.64457,-1.36129 -2.21328,-1.36129 -0.42564,0 -1.08761,0.24676 -1.47104,0.54837 -0.52651,0.41415 -0.69714,0.78564 -0.69714,1.5178 0,0.89062 0.28475,1.25478 3.50205,4.47872 3.3193,3.32614 3.55691,3.50927 4.55324,3.50927 z m 10.46554,-23.8125 h -5.02708 v -5.090614 -5.090617 l 5.02708,5.02186 c 2.7649,2.762021 5.02709,5.052801 5.02709,5.090621 0,0.0378 -2.26219,0.0687 -5.02709,0.0687 z"
       id="path1126"
       sodipodi:nodetypes="scssssssscccccccssssssssssssccsssscsssssssccccsscc"
       inkscape:export-filename="C:\wamp64\www\JS Projects\portfolio\src\dlcv.png"
       inkscape:export-xdpi="95.978104"
       inkscape:export-ydpi="95.978104" />
  </g>
</svg>
